<?xml version="1.0" encoding="utf-8"?>
<!-- Generator: Adobe Illustrator 17.1.0, SVG Export Plug-In . SVG Version: 6.00 Build 0)  -->
<!DOCTYPE svg PUBLIC "-//W3C//DTD SVG 1.1//EN" "http://www.w3.org/Graphics/SVG/1.1/DTD/svg11.dtd">
<svg version="1.1" id="Layer_1" xmlns="http://www.w3.org/2000/svg" xmlns:xlink="http://www.w3.org/1999/xlink" x="0px" y="0px"
	 viewBox="0 0 512 512" enable-background="new 0 0 512 512" xml:space="preserve">
<rect y="0" fill="#002B41" width="512" height="512"/>
<g>
	<defs>
		<rect id="SVGID_1_" y="0" width="512" height="512"/>
	</defs>
	<clipPath id="SVGID_2_">
		<use xlink:href="#SVGID_1_"  overflow="visible"/>
	</clipPath>
	<path clip-path="url(#SVGID_2_)" fill="#FFCE01" d="M99,444.3V270.5H72.9v-40.8H99v-8.8c0-24.1,4.3-46.5,19.7-64.1
		c11.5-13.2,28-19.7,46.2-19.7c13.4,0,23.7,2.2,31.2,4.8l-5.9,44.8c-3.9-1.8-9.5-2.6-15.8-2.6c-17.4,0-23.7,16.7-23.7,35.5v10.1
		h33.6v40.8h-33.6v173.8H99z"/>
	<path clip-path="url(#SVGID_2_)" fill="#FFFFFF" d="M301.2,318c0-27.6-6.3-49.1-21.7-49.1c-17,0-23.7,27.7-24.1,49.1H301.2z
		 M255,358.4c0.8,33.4,18.2,45.6,41.1,45.6c14.6,0,27.6-3.5,36.7-7l7.1,41.2c-13.4,5.7-33.6,9.7-53.3,9.7
		c-52.5,0-81.4-38.6-81.4-105.8c0-72,33.6-115,77.4-115c41.5,0,65.6,36.4,65.6,101.4c0,15.4-0.4,23.7-1.6,29.8H255z"/>
</g>
</svg>
